<svg xmlns="http://www.w3.org/2000/svg" width="256" height="256"><path fill-opacity=".016" d="M0 128.004v128.004l128.25-.254 128.25-.254.254-127.75L257.008 0H0v128.004m.485.496c0 70.4.119 99.053.265 63.672.146-35.38.146-92.98 0-128C.604 29.153.485 58.1.485 128.5" fill="#0f143a" fill-rule="evenodd"/><path fill-opacity=".147" d="M0 128.011v35.997l128.25-.254 128.25-.254.262-36 .263-36-128.513.258L0 92.015v35.996M.215 128c-.031 20.075.17 35.938.447 35.25.369-.913 4.598-1.293 15.671-1.41 8.342-.088 13.705-.342 11.917-.563l-3.25-.404V128h3.929c4.243 0 6.795 1.806 7.515 5.32.246 1.199.64 6.455.876 11.68.672 14.871 2.889 17.503 14.736 17.496 7.964-.004 10.186-1.469 11.786-7.772.581-2.288.876-4.34.656-4.56-.221-.22-.71.891-1.087 2.468-.895 3.737-2.24 5.368-4.426 5.368-2.418 0-2.984-1.955-2.991-10.332-.01-12.841-2.029-16.467-10.494-18.838l-4-1.121 4.506-1.188c6.456-1.704 8.756-3.16 10.59-6.707 2.239-4.33 1.569-14.857-1.14-17.895-4.205-4.718-7.502-5.314-31.649-5.723-22.297-.378-22.7-.422-23.114-2.54C.462 92.47.247 107.925.215 128m128.24-32.545c-3.023 3.023-3.269 8.318-.543 11.684 1.563 1.931 2.854 2.361 7.088 2.361s5.525-.43 7.088-2.361c2.909-3.592 2.556-9.487-.723-12.066-3.762-2.96-9.746-2.783-12.91.382M1 129v32h6V97H1v32m24-17v15h3.566C36.198 127 39 122.864 39 111.597c0-4.127-.5-8.599-1.11-9.94C36.544 98.704 33.091 97 28.453 97H25v15m58.12 5.019c-8.252 1.735-11.888 6.076-10.643 12.708.701 3.739 2.966 5.273 7.783 5.273 6.316 0 10.631-8.382 5.679-11.032-2.945-1.577-2.153-5.178 1.416-6.428 2.454-.86 3.12-.672 4.75 1.341C93.66 120.802 94 122.882 94 130.482v9.26l-7.174.706c-8.277.816-14.462 3.003-15.855 5.607-.534.997-.971 3.89-.971 6.427 0 3.682.524 5.099 2.595 7.019 4.731 4.384 15.395 4.502 19.051.21 1.59-1.867 1.605-1.984.104-.821-2.938 2.275-4.75-.234-4.75-6.578 0-7.11 2.137-11.254 5.826-11.297 1.018-.011 1.251 1.824 1 7.907-.179 4.356-.175 7.768.01 7.58.185-.187 1.535.987 3 2.61 4.648 5.148 17.411 5.032 20.202-.183 1.285-2.402 1.179-3.907-.118-1.679-1.345 2.308-3.596 2.223-4.885-.184-.574-1.072-1.035-8.247-1.035-16.099 0-16.175-1.046-19.812-6.436-22.37-4.103-1.947-15.647-2.796-21.444-1.578m100.193.04c-1.753.531-4.566 2.638-6.25 4.681L174 125.456V117l-11.25.15c-6.187.082-10.012.337-8.5.566l2.75.417v42.734l-2.75.417c-1.512.229 3.325.422 10.75.43 7.425.007 12.488-.181 11.25-.42-2.217-.427-2.25-.659-2.25-15.798 0-8.458.48-16.631 1.067-18.181 1.424-3.759 4.862-7.315 7.072-7.315 3.271 0 3.861 3.418 3.861 22.365 0 18.386-.013 18.498-2.25 18.929-1.238.239 3.825.427 11.25.42 7.425-.008 12.299-.198 10.83-.423l-2.67-.408-.361-17.692c-.393-19.235-1.116-22.269-5.889-24.737-3.727-1.928-9.788-2.549-13.597-1.395m56.903.89c-2.922 1.353-4.738 3.028-5.711 5.267-1.518 3.493-1.691 3.288-1.883-2.216l-.122-3.5-11.5-.149c-6.325-.083-10.15.146-8.5.509l3 .658.27 21.176.269 21.176-3.269.405c-1.799.223 3.48.405 11.73.405s13.537-.182 11.75-.403l-3.25-.404v-15.976c0-14.11.238-16.444 2.041-19.977 2.141-4.197 5.751-6.597 8.395-5.583 2.493.957 1.893 4.587-.936 5.663-3.398 1.292-3.331 5.201.135 7.927 3.411 2.684 6.61 2.626 9.869-.177 2.05-1.764 2.628-3.192 2.675-6.608.111-8.094-6.895-11.93-14.963-8.193m-116.716-.071l3 .64.27 21.176.269 21.176-3.269.405c-1.799.223 3.255.424 11.23.447 7.975.023 13.15-.247 11.5-.6l-3-.64-.27-21.741-.269-21.741-11.231.118c-6.176.065-9.88.407-8.23.76M118.158 153c0 1.375.227 1.938.504 1.25.278-.687.278-1.812 0-2.5-.277-.687-.504-.125-.504 1.25" fill="#0f143a" fill-rule="evenodd"/><path fill-opacity=".519" d="M0 94.008C0 95.937.694 96 21.818 96c25.445 0 31.002 1.011 34.169 6.219 4.054 6.666 3.389 16.2-1.447 20.743-1.365 1.283-4.557 2.859-7.092 3.503l-4.609 1.17 3.89 1.166c2.14.641 4.971 2.315 6.292 3.721 2.117 2.254 2.469 3.79 2.981 13.008.319 5.748 1.049 10.921 1.622 11.494 1.681 1.681 4.43-.042 5.055-3.171.63-3.149 2.321-4.921 2.321-2.432 0 3.354-3.22 9.358-5.601 10.443-3.602 1.641-12.994 1.397-16.527-.43-4.357-2.253-5.869-6.788-5.887-17.652-.019-12.18-1.02-14.185-7.285-14.588l-4.751-.306.275 15.797.276 15.797 3 .641c1.65.352-4.087.694-12.75.759-9.794.073-15.75.498-15.75 1.122 0 .668 42.926.919 128.25.75l128.25-.254.236-36 .236-36-128.486.258C.914 92.013 0 92.029 0 94.008M.158 94c0 1.375.227 1.938.504 1.25.278-.687.278-1.812 0-2.5-.277-.687-.504-.125-.504 1.25m128.016 1.314c-3.05 3.247-2.979 9.581.14 12.512 2.668 2.505 10.055 2.97 12.897.811 4.253-3.231 4.531-11.303.487-14.136-3.431-2.403-10.925-1.952-13.524.813M1 129v32.133l2.75-.317 2.75-.316v-63l-2.75-.316L1 96.867V129m24-17.004v15.267l4.078-.547c7.548-1.012 10.401-6.227 9.747-17.813-.474-8.379-2.212-10.583-9.09-11.526L25 96.728v15.268m55.5 5.449c-5.48 2.018-8.5 5.733-8.5 10.456 0 6.764 7.149 9.852 13.37 5.776 2.11-1.383 2.63-2.509 2.63-5.7 0-2.943-.407-3.977-1.566-3.977-1.108 0-1.474-.776-1.25-2.649.405-3.396 3.156-5.257 5.543-3.751 2.37 1.494 3.057 4.528 3.173 14.007l.1 8.107-7.995.548c-12.577.862-17.931 5.297-16.515 13.68 1.03 6.098 4.317 8.425 12.552 8.891 6.746.381 7.032.3 9.952-2.826 1.653-1.77 3.006-2.714 3.006-2.098 0 2.391 6.412 5.083 12.115 5.087 6.7.005 10.396-2.352 11.383-7.258.358-1.781.873-4.025 1.144-4.988.271-.963.012-1.75-.575-1.75S118 150.264 118 151.809c0 3.58-2.235 6.699-4.247 5.927-1.264-.485-1.606-3.305-1.933-15.913-.446-17.188-1.454-20.528-7.087-23.488-4.448-2.338-18.865-2.868-24.233-.89m100.921-.026c-1.694.737-4.042 2.632-5.218 4.211l-2.14 2.87-.031-3.75L174 117h-11.559c-7.451 0-11.339.355-10.941 1 .34.55 1.726 1 3.079 1h2.462l-.271 20.741-.27 20.741-3 .641c-1.65.352 3.3.632 11 .623 7.7-.01 12.949-.218 11.665-.463l-2.334-.444.342-16.17c.277-13.053.681-16.79 2.095-19.389 2.333-4.287 4.888-5.617 7.344-3.823 1.71 1.25 1.921 3.131 2.233 19.959l.346 18.578-2.346.94c-1.622.649 1.973.922 11.655.884 7.7-.03 12.65-.342 11-.694l-3-.639-.5-18.041c-.422-15.238-.784-18.474-2.328-20.826-3.363-5.125-12.532-7.125-19.251-4.199m57.946.441c-1.724 1.083-3.861 3.007-4.75 4.277-1.613 2.302-1.617 2.299-1.617-1.414V117h-11.5c-7 0-11.5.391-11.5 1 0 .55 1.125 1 2.5 1h2.5V160.867l-2.75.417c-1.512.229 4.225.408 12.75.398 8.525-.01 13.813-.195 11.75-.41l-3.75-.393v-14.696c0-15.896.754-20.228 4.15-23.843 2.299-2.447 6.252-3.116 7.404-1.253.765 1.238-1.054 3.413-2.854 3.413-.66 0-1.339 1.436-1.509 3.191-.619 6.393 7.526 9.788 12.948 5.397 3.263-2.642 3.394-10.999.223-14.17-3.07-3.071-9.964-3.592-13.995-1.058M121 118c0 .55 1.125 1 2.5 1h2.5V160.867l-2.75.417c-1.513.229 3.775.416 11.75.416s13.262-.187 11.75-.416l-2.75-.417V117h-11.5c-7 0-11.5.391-11.5 1m-30.916 24.75c-1.462 1.197-2.316 3.331-2.702 6.75-.992 8.789 2.576 13.278 5.483 6.898 1.338-2.937 1.537-15.398.246-15.398-.489 0-1.851.787-3.027 1.75" fill="#0f143a" fill-rule="evenodd"/><path fill-opacity=".786" d="M0 93.5c0 1.28 2.753 1.501 18.75 1.506 32.219.01 38.819 2.452 40.006 14.803.858 8.932-2.095 14.168-9.407 16.682l-3.784 1.301 3.651 1.525c5.162 2.157 6.912 6.185 7.66 17.626.556 8.524.831 9.557 2.535 9.557 1.292 0 2.292-1.132 3.089-3.5 1.363-4.048 3.157-4.185 2.667-.204-.559 4.544-3.533 8.623-7.216 9.898-3.011 1.041-1.794 1.195 9.549 1.206 12.496.012 12.845-.044 9-1.429-2.2-.792-4.101-1.448-4.224-1.456-.124-.008-.911-1.343-1.75-2.965-3.083-5.961-1.129-13.496 4.149-16.002 1.554-.738 6.601-1.561 11.217-1.828l8.392-.486-.623-9.492c-.682-10.371-1.665-12.498-5.567-12.043-3.326.388-3.924 3.379-1.185 5.931 2.907 2.708 2.612 5.502-.957 9.072-2.696 2.695-3.531 2.984-7.215 2.49-6.458-.867-9.005-5.721-6.344-12.091 2.422-5.796 8.182-7.873 20.636-7.442 8.018.278 10.35.723 12.651 2.412 5.312 3.901 6.317 7.493 6.318 22.597.002 14.315.377 16.832 2.511 16.832 1.358 0 3.491-4.98 3.491-8.149 0-1.018.511-1.851 1.136-1.851 1.598 0 .342 8.341-1.734 11.509-.899 1.372-3.044 2.904-4.768 3.406-1.944.565 24.765.849 70.366.748l73.5-.163.211-36 .211-36-59.711.322c-34.493.186-58.806.683-57.568 1.178 5.224 2.088 6.994 9.649 3.345 14.288-3.978 5.058-12.799 4.71-16.057-.633-1.058-1.735-1.919-4.055-1.913-5.155.018-3.122 2.28-6.838 5.002-8.216 2.014-1.019-9.972-1.257-63.77-1.269C8.021 92.002 0 92.182 0 93.5m.079.083c.048 1.165.285 1.402.604.605.289-.722.253-1.585-.079-1.917-.332-.332-.568.258-.525 1.312M1 129v31h5V98H1v31m24.803-16.998l-.303 14.001 3.639-.001c2.002-.001 4.629-.803 5.838-1.783 2.779-2.25 4.306-9.883 3.42-17.101C37.572 100.396 35.38 98 30.053 98h-3.948l-.302 14.002m152.732 7.102L175 122.207V117h-12c-7.333 0-12 .389-12 1 0 .55 1.125 1 2.5 1h2.5v41h-2.5c-1.556 0-2.5.567-2.5 1.5 0 1.259 2.16 1.5 13.441 1.5 8.447 0 13.686-.397 14.101-1.067.365-.591-.307-1.32-1.506-1.634-2.127-.556-2.159-.855-1.85-17.355.303-16.183.401-16.882 2.738-19.366 2.74-2.914 5.566-3.349 6.469-.996.334.87.607 9.592.607 19.383 0 17.245-.066 17.819-2.101 18.351-1.156.303-1.804 1.029-1.441 1.617.415.67 5.654 1.067 14.101 1.067 11.281 0 13.441-.241 13.441-1.5 0-.917-.933-1.5-2.401-1.5h-2.401l-.353-17.25c-.301-14.713-.629-17.708-2.234-20.364-2.8-4.635-6.497-6.386-13.48-6.386-5.354 0-6.474.362-9.596 3.104m60.965-1.967c-1.1.592-3.01 2.266-4.245 3.72l-2.245 2.643-.005-3.25L233 117h-11.5c-7 0-11.5.391-11.5 1 0 .55 1.125 1 2.5 1h2.5v41h-2.5c-1.556 0-2.5.567-2.5 1.5 0 1.267 2.333 1.5 15 1.5s15-.233 15-1.5c0-1.048-1.056-1.5-3.5-1.5H233v-13.318c0-14.862 1.616-22.599 5.25-25.145 3.108-2.176 5.75-1.964 5.75.463 0 1.333-.667 2-2 2-1.933 0-2.576 1.886-2.043 6 .378 2.913 3.901 5.4 7.65 5.4 5.073 0 8.393-3.903 8.393-9.867 0-3.636-.508-4.783-3.077-6.944-3.335-2.807-9.639-3.488-13.423-1.452M120 118c0 .55 1.35 1 3 1h3V159.867l-2.75.317c-1.513.174-2.638.766-2.5 1.316.152.607 5.75 1 14.25 1s14.098-.393 14.25-1c.137-.55-.988-1.142-2.5-1.316l-2.75-.317V117h-12c-7.333 0-12 .389-12 1m-94.5 26.5V160h3.333c2.222 0 3.195.417 2.919 1.25-.297.896-4.785 1.403-15.833 1.79-14.142.495-13.432.549 8.581.66 15.412.077 22.907-.198 20.945-.768-6.735-1.958-9.445-8.7-9.445-23.497C36 130.91 34.751 129 29.179 129H25.5v15.5m64.071-.929c-1.855 1.856-2.237 13.9-.475 14.988 2.289 1.415 4.158-2.381 4.666-9.472.427-5.976.262-7.087-1.056-7.087-.86 0-2.27.707-3.135 1.571m2.484 16.87c-1.267 1.349-3.26 2.64-4.429 2.87-1.169.229 2.149.439 7.374.467 6.819.036 8.687-.193 6.619-.812-1.584-.475-3.866-1.789-5.07-2.92l-2.19-2.057-2.304 2.452" fill="#0f143a" fill-rule="evenodd"/></svg>